<svg width="151" height="34" viewBox="0 0 151 34" fill="none" xmlns="http://www.w3.org/2000/svg">
<path d="M45.3095 24.2484C44.1336 24.2484 43.1565 24 42.3781 23.5032C41.6163 22.9898 41.0532 22.2196 40.6889 21.1928C40.3245 20.1495 40.1423 18.8246 40.1423 17.2181C40.1423 15.5785 40.3079 14.2453 40.6392 13.2185C40.987 12.1751 41.5418 11.405 42.3036 10.9082C43.0654 10.4113 44.0674 10.1629 45.3095 10.1629C46.5019 10.1629 47.595 10.4527 48.5887 11.0324C49.5823 11.5955 50.3773 12.407 50.9735 13.4669C51.5697 14.5103 51.8678 15.7607 51.8678 17.2181C51.8678 18.6755 51.5697 19.9342 50.9735 20.9941C50.3773 22.0375 49.5823 22.8407 48.5887 23.4038C47.595 23.9669 46.5019 24.2484 45.3095 24.2484ZM36.2421 28.8194V10.4113H41.5832V12.2497L41.608 17.2181L41.8564 22.1865V28.8194H36.2421ZM43.968 19.8762C44.3821 19.8762 44.7547 19.7768 45.0859 19.5781C45.4171 19.3794 45.6821 19.0813 45.8809 18.6838C46.0796 18.2863 46.179 17.7977 46.179 17.2181C46.179 16.6219 46.0796 16.125 45.8809 15.7276C45.6821 15.3301 45.4171 15.032 45.0859 14.8332C44.7547 14.6345 44.3821 14.5351 43.968 14.5351C43.554 14.5351 43.1813 14.6345 42.8501 14.8332C42.5189 15.032 42.2539 15.3301 42.0552 15.7276C41.8564 16.125 41.7571 16.6219 41.7571 17.2181C41.7571 17.7977 41.8564 18.2863 42.0552 18.6838C42.2539 19.0813 42.5189 19.3794 42.8501 19.5781C43.1813 19.7768 43.554 19.8762 43.968 19.8762ZM61.1388 24.2484C59.4826 24.2484 58.0335 23.942 56.7914 23.3293C55.5659 22.7165 54.6136 21.8801 53.9346 20.8202C53.2555 19.7437 52.916 18.5347 52.916 17.1933C52.916 15.8187 53.2473 14.6014 53.9097 13.5415C54.5887 12.4815 55.5079 11.6535 56.6672 11.0572C57.8431 10.461 59.1597 10.1629 60.6171 10.1629C61.9586 10.1629 63.1924 10.4279 64.3186 10.9579C65.4613 11.4878 66.3722 12.2745 67.0512 13.3179C67.7468 14.3612 68.0946 15.653 68.0946 17.1933C68.0946 17.392 68.0863 17.6156 68.0697 17.864C68.0532 18.0958 68.0366 18.3111 68.0201 18.5099H57.5615V15.8021H65.039L62.9274 16.5225C62.9274 15.9925 62.8281 15.5454 62.6293 15.181C62.4471 14.8001 62.1904 14.5103 61.8592 14.3116C61.528 14.0963 61.1305 13.9886 60.6668 13.9886C60.2031 13.9886 59.7973 14.0963 59.4495 14.3116C59.1183 14.5103 58.8616 14.8001 58.6794 15.181C58.4972 15.5454 58.4062 15.9925 58.4062 16.5225V17.3671C58.4062 17.9468 58.5221 18.4436 58.7539 18.8577C58.9858 19.2717 59.317 19.5864 59.7476 19.8017C60.1782 20.0004 60.6999 20.0998 61.3127 20.0998C61.942 20.0998 62.4554 20.017 62.8529 19.8514C63.2669 19.6857 63.6975 19.4373 64.1447 19.1061L67.0761 22.0623C66.4136 22.7745 65.5938 23.321 64.6167 23.7019C63.6561 24.0662 62.4968 24.2484 61.1388 24.2484ZM77.3687 24.2484C75.7125 24.2484 74.2634 23.942 73.0213 23.3293C71.7957 22.7165 70.8435 21.8801 70.1644 20.8202C69.4854 19.7437 69.1459 18.5347 69.1459 17.1933C69.1459 15.8187 69.4771 14.6014 70.1396 13.5415C70.8186 12.4815 71.7378 11.6535 72.8971 11.0572C74.0729 10.461 75.3896 10.1629 76.847 10.1629C78.1885 10.1629 79.4223 10.4279 80.5485 10.9579C81.6912 11.4878 82.6021 12.2745 83.2811 13.3179C83.9767 14.3612 84.3245 15.653 84.3245 17.1933C84.3245 17.392 84.3162 17.6156 84.2996 17.864C84.2831 18.0958 84.2665 18.3111 84.2499 18.5099H73.7914V15.8021H81.2689L79.1573 16.5225C79.1573 15.9925 79.0579 15.5454 78.8592 15.181C78.677 14.8001 78.4203 14.5103 78.0891 14.3116C77.7579 14.0963 77.3604 13.9886 76.8967 13.9886C76.4329 13.9886 76.0272 14.0963 75.6794 14.3116C75.3482 14.5103 75.0915 14.8001 74.9093 15.181C74.7271 15.5454 74.636 15.9925 74.636 16.5225V17.3671C74.636 17.9468 74.752 18.4436 74.9838 18.8577C75.2157 19.2717 75.5469 19.5864 75.9775 19.8017C76.4081 20.0004 76.9298 20.0998 77.5426 20.0998C78.1719 20.0998 78.6853 20.017 79.0828 19.8514C79.4968 19.6857 79.9274 19.4373 80.3746 19.1061L83.3059 22.0623C82.6435 22.7745 81.8237 23.321 80.8466 23.7019C79.886 24.0662 78.7267 24.2484 77.3687 24.2484ZM92.0583 24.2484C90.8825 24.2484 89.7894 23.9669 88.7792 23.4038C87.7855 22.8241 86.9905 22.0126 86.3943 20.9693C85.7981 19.9093 85.5 18.6507 85.5 17.1933C85.5 15.7358 85.7981 14.4855 86.3943 13.4421C86.9905 12.3822 87.7855 11.5706 88.7792 11.0076C89.7894 10.4445 90.8825 10.1629 92.0583 10.1629C93.2508 10.1629 94.2279 10.4196 94.9897 10.933C95.7515 11.4299 96.3146 12.2 96.679 13.2434C97.0433 14.2702 97.2255 15.5868 97.2255 17.1933C97.2255 18.8163 97.0516 20.1495 96.7038 21.1928C96.3726 22.2362 95.8261 23.0063 95.0642 23.5032C94.319 24 93.317 24.2484 92.0583 24.2484ZM93.3998 19.8762C93.8138 19.8762 94.1865 19.7768 94.5177 19.5781C94.8489 19.3794 95.1139 19.0813 95.3127 18.6838C95.5114 18.2697 95.6108 17.7729 95.6108 17.1933C95.6108 16.597 95.5114 16.1085 95.3127 15.7276C95.1139 15.3301 94.8489 15.032 94.5177 14.8332C94.1865 14.6345 93.8138 14.5351 93.3998 14.5351C92.9858 14.5351 92.6131 14.6345 92.2819 14.8332C91.9507 15.032 91.6857 15.3301 91.487 15.7276C91.2882 16.1085 91.1889 16.597 91.1889 17.1933C91.1889 17.7729 91.2882 18.2697 91.487 18.6838C91.6857 19.0813 91.9507 19.3794 92.2819 19.5781C92.6131 19.7768 92.9858 19.8762 93.3998 19.8762ZM95.7847 24V22.1617L95.7598 17.1933L95.5114 12.2248V5.56713H101.126V24H95.7847ZM106.593 29.0678C105.848 29.0678 105.086 28.9519 104.307 28.72C103.546 28.5047 102.933 28.2149 102.469 27.8505L104.332 24C104.614 24.2153 104.929 24.3892 105.276 24.5217C105.641 24.6542 105.988 24.7204 106.32 24.7204C106.817 24.7204 107.197 24.6128 107.462 24.3975C107.727 24.1987 107.943 23.8924 108.108 23.4783L108.68 22.0375L109.077 21.4909L113.425 10.4113H118.741L113.151 24.2733C112.654 25.5154 112.075 26.4842 111.412 27.1798C110.766 27.8754 110.038 28.3639 109.226 28.6455C108.431 28.927 107.553 29.0678 106.593 29.0678ZM107.91 24.6211L101.997 10.4113H107.761L111.835 20.9941L107.91 24.6211Z" fill="#07154E"/>
<path d="M121.269 23.2628C120.419 23.2628 119.705 22.9896 119.128 22.443C118.552 21.8813 118.263 21.1678 118.263 20.3025C118.263 19.4219 118.552 18.716 119.128 18.1847C119.705 17.6533 120.419 17.3876 121.269 17.3876C122.119 17.3876 122.833 17.6533 123.41 18.1847C123.986 18.716 124.275 19.4219 124.275 20.3025C124.275 21.1678 123.986 21.8813 123.41 22.443C122.833 22.9896 122.119 23.2628 121.269 23.2628ZM133.622 23.0351V20.8262L133.258 20.2341V16.0441C133.258 15.4368 133.068 14.9738 132.689 14.655C132.324 14.3362 131.725 14.1768 130.89 14.1768C130.328 14.1768 129.759 14.2679 129.182 14.4501C128.605 14.6171 128.111 14.8524 127.702 15.156L126.062 11.763C126.791 11.3075 127.664 10.9584 128.681 10.7155C129.698 10.4726 130.692 10.3511 131.664 10.3511C133.804 10.3511 135.459 10.8293 136.628 11.7857C137.812 12.7422 138.404 14.2603 138.404 16.3401V23.0351H133.622ZM130.093 23.2628C129.075 23.2628 128.225 23.0882 127.542 22.7391C126.859 22.3899 126.343 21.9269 125.994 21.35C125.644 20.7579 125.47 20.1051 125.47 19.3916C125.47 18.587 125.675 17.9038 126.085 17.3421C126.495 16.7804 127.117 16.3553 127.952 16.0669C128.802 15.7784 129.872 15.6342 131.163 15.6342H133.759V18.1164H131.983C131.436 18.1164 131.034 18.2074 130.776 18.3896C130.533 18.5566 130.411 18.8147 130.411 19.1639C130.411 19.4523 130.518 19.6952 130.73 19.8926C130.958 20.0747 131.262 20.1658 131.641 20.1658C131.99 20.1658 132.309 20.0747 132.597 19.8926C132.901 19.6952 133.121 19.3916 133.258 18.9817L133.918 20.5074C133.721 21.4335 133.303 22.1242 132.666 22.5797C132.028 23.0351 131.17 23.2628 130.093 23.2628ZM140.629 23.0351V10.5788H145.775V23.0351H140.629ZM143.202 9.57686C142.26 9.57686 141.509 9.32637 140.947 8.82539C140.386 8.3244 140.105 7.70197 140.105 6.95809C140.105 6.2142 140.386 5.59177 140.947 5.09078C141.509 4.5898 142.26 4.33931 143.202 4.33931C144.143 4.33931 144.894 4.57462 145.456 5.04524C146.018 5.51586 146.299 6.12311 146.299 6.867C146.299 7.65643 146.018 8.30922 145.456 8.82539C144.894 9.32637 144.143 9.57686 143.202 9.57686Z" fill="#07154E"/>
<circle cx="16" cy="18" r="16" fill="#07154E"/>
<path d="M18.4014 10.8959C19.315 10.8959 20.1527 11.1177 20.9141 11.5619C21.6756 11.9934 22.2843 12.6158 22.7412 13.4281C23.198 14.2276 23.4267 15.1854 23.4268 16.3021C23.4268 17.419 23.1981 18.3844 22.7412 19.1967C22.2843 19.9961 21.6755 20.6119 20.9141 21.0433C20.1527 21.4748 19.315 21.6907 18.4014 21.6908C17.5002 21.6908 16.7508 21.5002 16.1543 21.1195C16.0118 21.0235 15.8792 20.9147 15.7549 20.7953V25.1937H11.4521V24.2504H14.5L14.5508 24.2455C14.6644 24.2221 14.7498 24.1209 14.75 24.0004C14.75 23.8797 14.6645 23.7787 14.5508 23.7552L14.5 23.7504H11.4521V23.2504H13.75V22.7504H11.4521V22.2504H14.5C14.6379 22.2504 14.7498 22.1383 14.75 22.0004C14.75 21.8623 14.6381 21.7504 14.5 21.7504H11.4521V11.0863H15.5449V11.9437C15.7101 11.7596 15.8937 11.6002 16.0977 11.4672C16.6815 11.0864 17.4495 10.8959 18.4014 10.8959ZM17.373 14.2465C17.0559 14.2465 16.7704 14.3228 16.5166 14.475C16.2628 14.6273 16.0595 14.8559 15.9072 15.1605C15.755 15.465 15.6788 15.8454 15.6787 16.3021C15.6787 16.7464 15.7549 17.1215 15.9072 17.4261C16.0595 17.7306 16.2629 17.9585 16.5166 18.1107C16.7704 18.263 17.0558 18.3392 17.373 18.3392C17.6903 18.3392 17.9757 18.263 18.2295 18.1107C18.4832 17.9585 18.6866 17.7306 18.8389 17.4261C18.9912 17.1215 19.0674 16.7464 19.0674 16.3021C19.0673 15.8455 18.991 15.465 18.8389 15.1605C18.6866 14.8559 18.4833 14.6273 18.2295 14.475C17.9757 14.3227 17.6903 14.2465 17.373 14.2465Z" fill="white"/>
</svg>
